<mxfile host="app.diagrams.net" agent="Mozilla/5.0 (X11; Linux x86_64; rv:109.0) Gecko/20100101 Firefox/115.0" version="24.8.6">
  <diagram name="Page-1" id="0zgcI34DR16TmhRMdPE1">
    <mxGraphModel dx="2954" dy="1090" grid="1" gridSize="10" guides="1" tooltips="1" connect="1" arrows="1" fold="1" page="1" pageScale="1" pageWidth="1169" pageHeight="827" math="0" shadow="0">
      <root>
        <mxCell id="0" />
        <mxCell id="1" parent="0" />
        <mxCell id="1GYXw-SZhSwycH9JpS6I-1" value="" style="rounded=0;whiteSpace=wrap;html=1;" vertex="1" parent="1">
          <mxGeometry x="40" y="40" width="180" height="180" as="geometry" />
        </mxCell>
        <mxCell id="1GYXw-SZhSwycH9JpS6I-2" value="" style="rounded=0;whiteSpace=wrap;html=1;fillStyle=dots;fillColor=#babdb6;" vertex="1" parent="1">
          <mxGeometry x="50" y="50" width="160" height="160" as="geometry" />
        </mxCell>
        <mxCell id="1GYXw-SZhSwycH9JpS6I-3" value="" style="rounded=0;whiteSpace=wrap;html=1;" vertex="1" parent="1">
          <mxGeometry x="220" y="40" width="180" height="180" as="geometry" />
        </mxCell>
        <mxCell id="1GYXw-SZhSwycH9JpS6I-4" value="" style="rounded=0;whiteSpace=wrap;html=1;fillStyle=dots;fillColor=#babdb6;" vertex="1" parent="1">
          <mxGeometry x="230" y="50" width="160" height="160" as="geometry" />
        </mxCell>
        <mxCell id="1GYXw-SZhSwycH9JpS6I-5" value="" style="rounded=0;whiteSpace=wrap;html=1;" vertex="1" parent="1">
          <mxGeometry x="400" y="40" width="180" height="180" as="geometry" />
        </mxCell>
        <mxCell id="1GYXw-SZhSwycH9JpS6I-6" value="" style="rounded=0;whiteSpace=wrap;html=1;fillStyle=dots;fillColor=#babdb6;" vertex="1" parent="1">
          <mxGeometry x="410" y="50" width="160" height="160" as="geometry" />
        </mxCell>
        <mxCell id="1GYXw-SZhSwycH9JpS6I-7" value="" style="rounded=0;whiteSpace=wrap;html=1;" vertex="1" parent="1">
          <mxGeometry x="580" y="40" width="180" height="180" as="geometry" />
        </mxCell>
        <mxCell id="1GYXw-SZhSwycH9JpS6I-8" value="" style="rounded=0;whiteSpace=wrap;html=1;fillStyle=dots;fillColor=#babdb6;" vertex="1" parent="1">
          <mxGeometry x="590" y="50" width="160" height="160" as="geometry" />
        </mxCell>
        <mxCell id="1GYXw-SZhSwycH9JpS6I-9" value="" style="rounded=0;whiteSpace=wrap;html=1;" vertex="1" parent="1">
          <mxGeometry x="40" y="220" width="180" height="180" as="geometry" />
        </mxCell>
        <mxCell id="1GYXw-SZhSwycH9JpS6I-10" value="" style="rounded=0;whiteSpace=wrap;html=1;fillStyle=dots;fillColor=#babdb6;" vertex="1" parent="1">
          <mxGeometry x="50" y="230" width="160" height="160" as="geometry" />
        </mxCell>
        <mxCell id="1GYXw-SZhSwycH9JpS6I-11" value="" style="rounded=0;whiteSpace=wrap;html=1;" vertex="1" parent="1">
          <mxGeometry x="220" y="220" width="180" height="180" as="geometry" />
        </mxCell>
        <mxCell id="1GYXw-SZhSwycH9JpS6I-12" value="" style="rounded=0;whiteSpace=wrap;html=1;fillStyle=dots;fillColor=#babdb6;" vertex="1" parent="1">
          <mxGeometry x="230" y="230" width="160" height="160" as="geometry" />
        </mxCell>
        <mxCell id="1GYXw-SZhSwycH9JpS6I-13" value="" style="rounded=0;whiteSpace=wrap;html=1;" vertex="1" parent="1">
          <mxGeometry x="400" y="220" width="180" height="180" as="geometry" />
        </mxCell>
        <mxCell id="1GYXw-SZhSwycH9JpS6I-14" value="" style="rounded=0;whiteSpace=wrap;html=1;fillStyle=dots;fillColor=#babdb6;" vertex="1" parent="1">
          <mxGeometry x="410" y="230" width="160" height="160" as="geometry" />
        </mxCell>
        <mxCell id="1GYXw-SZhSwycH9JpS6I-15" value="" style="rounded=0;whiteSpace=wrap;html=1;" vertex="1" parent="1">
          <mxGeometry x="580" y="220" width="180" height="180" as="geometry" />
        </mxCell>
        <mxCell id="1GYXw-SZhSwycH9JpS6I-16" value="" style="rounded=0;whiteSpace=wrap;html=1;fillStyle=dots;fillColor=#babdb6;" vertex="1" parent="1">
          <mxGeometry x="590" y="230" width="160" height="160" as="geometry" />
        </mxCell>
        <mxCell id="1GYXw-SZhSwycH9JpS6I-17" value="" style="rounded=0;whiteSpace=wrap;html=1;" vertex="1" parent="1">
          <mxGeometry x="40" y="440" width="180" height="180" as="geometry" />
        </mxCell>
        <mxCell id="1GYXw-SZhSwycH9JpS6I-18" value="" style="rounded=0;whiteSpace=wrap;html=1;fillStyle=dots;fillColor=#babdb6;" vertex="1" parent="1">
          <mxGeometry x="50" y="450" width="160" height="160" as="geometry" />
        </mxCell>
        <mxCell id="1GYXw-SZhSwycH9JpS6I-19" value="" style="rounded=0;whiteSpace=wrap;html=1;" vertex="1" parent="1">
          <mxGeometry x="220" y="440" width="180" height="180" as="geometry" />
        </mxCell>
        <mxCell id="1GYXw-SZhSwycH9JpS6I-20" value="" style="rounded=0;whiteSpace=wrap;html=1;fillStyle=dots;fillColor=#babdb6;" vertex="1" parent="1">
          <mxGeometry x="230" y="450" width="160" height="160" as="geometry" />
        </mxCell>
        <mxCell id="1GYXw-SZhSwycH9JpS6I-21" value="" style="rounded=0;whiteSpace=wrap;html=1;" vertex="1" parent="1">
          <mxGeometry x="400" y="440" width="180" height="180" as="geometry" />
        </mxCell>
        <mxCell id="1GYXw-SZhSwycH9JpS6I-22" value="" style="rounded=0;whiteSpace=wrap;html=1;fillStyle=dots;fillColor=#babdb6;" vertex="1" parent="1">
          <mxGeometry x="410" y="450" width="160" height="160" as="geometry" />
        </mxCell>
        <mxCell id="1GYXw-SZhSwycH9JpS6I-23" value="" style="rounded=0;whiteSpace=wrap;html=1;" vertex="1" parent="1">
          <mxGeometry x="580" y="440" width="180" height="180" as="geometry" />
        </mxCell>
        <mxCell id="1GYXw-SZhSwycH9JpS6I-24" value="" style="rounded=0;whiteSpace=wrap;html=1;fillStyle=dots;fillColor=#babdb6;" vertex="1" parent="1">
          <mxGeometry x="590" y="450" width="160" height="160" as="geometry" />
        </mxCell>
        <mxCell id="1GYXw-SZhSwycH9JpS6I-25" value="" style="rounded=0;whiteSpace=wrap;html=1;" vertex="1" parent="1">
          <mxGeometry x="40" y="620" width="180" height="180" as="geometry" />
        </mxCell>
        <mxCell id="1GYXw-SZhSwycH9JpS6I-26" value="" style="rounded=0;whiteSpace=wrap;html=1;fillStyle=dots;fillColor=#babdb6;" vertex="1" parent="1">
          <mxGeometry x="50" y="630" width="160" height="160" as="geometry" />
        </mxCell>
        <mxCell id="1GYXw-SZhSwycH9JpS6I-27" value="" style="rounded=0;whiteSpace=wrap;html=1;" vertex="1" parent="1">
          <mxGeometry x="220" y="620" width="180" height="180" as="geometry" />
        </mxCell>
        <mxCell id="1GYXw-SZhSwycH9JpS6I-28" value="" style="rounded=0;whiteSpace=wrap;html=1;fillStyle=dots;fillColor=#babdb6;" vertex="1" parent="1">
          <mxGeometry x="230" y="630" width="160" height="160" as="geometry" />
        </mxCell>
        <mxCell id="1GYXw-SZhSwycH9JpS6I-29" value="" style="rounded=0;whiteSpace=wrap;html=1;" vertex="1" parent="1">
          <mxGeometry x="400" y="620" width="180" height="180" as="geometry" />
        </mxCell>
        <mxCell id="1GYXw-SZhSwycH9JpS6I-30" value="" style="rounded=0;whiteSpace=wrap;html=1;fillStyle=dots;fillColor=#babdb6;" vertex="1" parent="1">
          <mxGeometry x="410" y="630" width="160" height="160" as="geometry" />
        </mxCell>
        <mxCell id="1GYXw-SZhSwycH9JpS6I-31" value="" style="rounded=0;whiteSpace=wrap;html=1;" vertex="1" parent="1">
          <mxGeometry x="580" y="620" width="180" height="180" as="geometry" />
        </mxCell>
        <mxCell id="1GYXw-SZhSwycH9JpS6I-32" value="" style="rounded=0;whiteSpace=wrap;html=1;fillStyle=dots;fillColor=#babdb6;" vertex="1" parent="1">
          <mxGeometry x="590" y="630" width="160" height="160" as="geometry" />
        </mxCell>
        <mxCell id="1GYXw-SZhSwycH9JpS6I-33" value="" style="rounded=0;whiteSpace=wrap;html=1;fillColor=#d3d7cf;fillStyle=hatch;" vertex="1" parent="1">
          <mxGeometry x="50" y="450" width="700" height="340" as="geometry" />
        </mxCell>
        <mxCell id="1GYXw-SZhSwycH9JpS6I-34" value="" style="rounded=0;whiteSpace=wrap;html=1;" vertex="1" parent="1">
          <mxGeometry x="920" y="140" width="80" height="80" as="geometry" />
        </mxCell>
        <mxCell id="1GYXw-SZhSwycH9JpS6I-35" value="" style="rounded=0;whiteSpace=wrap;html=1;" vertex="1" parent="1">
          <mxGeometry x="920" y="220" width="80" height="80" as="geometry" />
        </mxCell>
        <mxCell id="1GYXw-SZhSwycH9JpS6I-36" value="" style="rounded=0;whiteSpace=wrap;html=1;" vertex="1" parent="1">
          <mxGeometry x="920" y="100" width="80" height="40" as="geometry" />
        </mxCell>
        <mxCell id="1GYXw-SZhSwycH9JpS6I-37" value="" style="rounded=0;whiteSpace=wrap;html=1;" vertex="1" parent="1">
          <mxGeometry x="920" y="60" width="80" height="40" as="geometry" />
        </mxCell>
        <mxCell id="1GYXw-SZhSwycH9JpS6I-38" value="" style="rounded=0;whiteSpace=wrap;html=1;" vertex="1" parent="1">
          <mxGeometry x="920" y="300" width="80" height="40" as="geometry" />
        </mxCell>
        <mxCell id="1GYXw-SZhSwycH9JpS6I-39" value="" style="rounded=0;whiteSpace=wrap;html=1;" vertex="1" parent="1">
          <mxGeometry x="880" y="220" width="40" height="80" as="geometry" />
        </mxCell>
        <mxCell id="1GYXw-SZhSwycH9JpS6I-40" value="" style="rounded=0;whiteSpace=wrap;html=1;" vertex="1" parent="1">
          <mxGeometry x="880" y="140" width="40" height="80" as="geometry" />
        </mxCell>
        <mxCell id="1GYXw-SZhSwycH9JpS6I-41" value="" style="rounded=0;whiteSpace=wrap;html=1;" vertex="1" parent="1">
          <mxGeometry x="840" y="140" width="40" height="80" as="geometry" />
        </mxCell>
        <mxCell id="1GYXw-SZhSwycH9JpS6I-42" value="" style="rounded=0;whiteSpace=wrap;html=1;" vertex="1" parent="1">
          <mxGeometry x="840" y="220" width="40" height="80" as="geometry" />
        </mxCell>
        <mxCell id="1GYXw-SZhSwycH9JpS6I-43" value="" style="rounded=0;whiteSpace=wrap;html=1;" vertex="1" parent="1">
          <mxGeometry x="1000" y="140" width="80" height="80" as="geometry" />
        </mxCell>
        <mxCell id="1GYXw-SZhSwycH9JpS6I-44" value="" style="rounded=0;whiteSpace=wrap;html=1;" vertex="1" parent="1">
          <mxGeometry x="1000" y="220" width="80" height="80" as="geometry" />
        </mxCell>
        <mxCell id="1GYXw-SZhSwycH9JpS6I-45" value="" style="rounded=0;whiteSpace=wrap;html=1;" vertex="1" parent="1">
          <mxGeometry x="1000" y="100" width="80" height="40" as="geometry" />
        </mxCell>
        <mxCell id="1GYXw-SZhSwycH9JpS6I-46" value="" style="rounded=0;whiteSpace=wrap;html=1;" vertex="1" parent="1">
          <mxGeometry x="1000" y="60" width="80" height="40" as="geometry" />
        </mxCell>
        <mxCell id="1GYXw-SZhSwycH9JpS6I-47" value="" style="rounded=0;whiteSpace=wrap;html=1;" vertex="1" parent="1">
          <mxGeometry x="1000" y="300" width="80" height="40" as="geometry" />
        </mxCell>
        <mxCell id="1GYXw-SZhSwycH9JpS6I-48" value="" style="ellipse;whiteSpace=wrap;html=1;aspect=fixed;fillColor=#babdb6;" vertex="1" parent="1">
          <mxGeometry x="890" y="270" width="20" height="20" as="geometry" />
        </mxCell>
        <mxCell id="1GYXw-SZhSwycH9JpS6I-49" value="" style="rounded=0;whiteSpace=wrap;html=1;" vertex="1" parent="1">
          <mxGeometry x="880" y="100" width="40" height="40" as="geometry" />
        </mxCell>
        <mxCell id="1GYXw-SZhSwycH9JpS6I-50" value="" style="rounded=0;whiteSpace=wrap;html=1;" vertex="1" parent="1">
          <mxGeometry x="880" y="60" width="40" height="40" as="geometry" />
        </mxCell>
        <mxCell id="1GYXw-SZhSwycH9JpS6I-51" value="" style="rounded=0;whiteSpace=wrap;html=1;" vertex="1" parent="1">
          <mxGeometry x="840" y="100" width="40" height="40" as="geometry" />
        </mxCell>
        <mxCell id="1GYXw-SZhSwycH9JpS6I-52" value="" style="rounded=0;whiteSpace=wrap;html=1;" vertex="1" parent="1">
          <mxGeometry x="840" y="60" width="40" height="40" as="geometry" />
        </mxCell>
        <mxCell id="1GYXw-SZhSwycH9JpS6I-53" value="" style="ellipse;whiteSpace=wrap;html=1;aspect=fixed;fillColor=#babdb6;" vertex="1" parent="1">
          <mxGeometry x="890" y="70" width="20" height="20" as="geometry" />
        </mxCell>
        <mxCell id="1GYXw-SZhSwycH9JpS6I-54" value="" style="ellipse;whiteSpace=wrap;html=1;aspect=fixed;fillColor=#babdb6;" vertex="1" parent="1">
          <mxGeometry x="850" y="70" width="20" height="20" as="geometry" />
        </mxCell>
        <mxCell id="1GYXw-SZhSwycH9JpS6I-55" value="" style="ellipse;whiteSpace=wrap;html=1;aspect=fixed;fillColor=#babdb6;" vertex="1" parent="1">
          <mxGeometry x="850" y="110" width="20" height="20" as="geometry" />
        </mxCell>
        <mxCell id="1GYXw-SZhSwycH9JpS6I-56" value="" style="ellipse;whiteSpace=wrap;html=1;aspect=fixed;fillColor=#babdb6;" vertex="1" parent="1">
          <mxGeometry x="890" y="110" width="20" height="20" as="geometry" />
        </mxCell>
        <mxCell id="1GYXw-SZhSwycH9JpS6I-57" value="" style="rounded=0;whiteSpace=wrap;html=1;" vertex="1" parent="1">
          <mxGeometry x="880" y="340" width="40" height="40" as="geometry" />
        </mxCell>
        <mxCell id="1GYXw-SZhSwycH9JpS6I-58" value="" style="rounded=0;whiteSpace=wrap;html=1;" vertex="1" parent="1">
          <mxGeometry x="880" y="300" width="40" height="40" as="geometry" />
        </mxCell>
        <mxCell id="1GYXw-SZhSwycH9JpS6I-59" value="" style="rounded=0;whiteSpace=wrap;html=1;" vertex="1" parent="1">
          <mxGeometry x="840" y="340" width="40" height="40" as="geometry" />
        </mxCell>
        <mxCell id="1GYXw-SZhSwycH9JpS6I-60" value="" style="rounded=0;whiteSpace=wrap;html=1;" vertex="1" parent="1">
          <mxGeometry x="840" y="300" width="40" height="40" as="geometry" />
        </mxCell>
        <mxCell id="1GYXw-SZhSwycH9JpS6I-61" value="" style="ellipse;whiteSpace=wrap;html=1;aspect=fixed;fillColor=#babdb6;" vertex="1" parent="1">
          <mxGeometry x="890" y="310" width="20" height="20" as="geometry" />
        </mxCell>
        <mxCell id="1GYXw-SZhSwycH9JpS6I-62" value="" style="ellipse;whiteSpace=wrap;html=1;aspect=fixed;fillColor=#babdb6;" vertex="1" parent="1">
          <mxGeometry x="850" y="310" width="20" height="20" as="geometry" />
        </mxCell>
        <mxCell id="1GYXw-SZhSwycH9JpS6I-63" value="" style="ellipse;whiteSpace=wrap;html=1;aspect=fixed;fillColor=#babdb6;" vertex="1" parent="1">
          <mxGeometry x="850" y="350" width="20" height="20" as="geometry" />
        </mxCell>
        <mxCell id="1GYXw-SZhSwycH9JpS6I-64" value="" style="ellipse;whiteSpace=wrap;html=1;aspect=fixed;fillColor=#babdb6;" vertex="1" parent="1">
          <mxGeometry x="890" y="350" width="20" height="20" as="geometry" />
        </mxCell>
        <mxCell id="1GYXw-SZhSwycH9JpS6I-65" value="" style="ellipse;whiteSpace=wrap;html=1;aspect=fixed;fillColor=#babdb6;" vertex="1" parent="1">
          <mxGeometry x="850" y="270" width="20" height="20" as="geometry" />
        </mxCell>
        <mxCell id="1GYXw-SZhSwycH9JpS6I-66" value="" style="ellipse;whiteSpace=wrap;html=1;aspect=fixed;fillColor=#babdb6;" vertex="1" parent="1">
          <mxGeometry x="890" y="150" width="20" height="20" as="geometry" />
        </mxCell>
        <mxCell id="1GYXw-SZhSwycH9JpS6I-67" value="" style="ellipse;whiteSpace=wrap;html=1;aspect=fixed;fillColor=#babdb6;" vertex="1" parent="1">
          <mxGeometry x="850" y="150" width="20" height="20" as="geometry" />
        </mxCell>
        <mxCell id="1GYXw-SZhSwycH9JpS6I-70" value="" style="ellipse;whiteSpace=wrap;html=1;aspect=fixed;fillColor=#babdb6;" vertex="1" parent="1">
          <mxGeometry x="930" y="70" width="20" height="20" as="geometry" />
        </mxCell>
        <mxCell id="1GYXw-SZhSwycH9JpS6I-71" value="" style="ellipse;whiteSpace=wrap;html=1;aspect=fixed;fillColor=#babdb6;" vertex="1" parent="1">
          <mxGeometry x="930" y="110" width="20" height="20" as="geometry" />
        </mxCell>
        <mxCell id="1GYXw-SZhSwycH9JpS6I-72" value="" style="ellipse;whiteSpace=wrap;html=1;aspect=fixed;fillColor=#babdb6;" vertex="1" parent="1">
          <mxGeometry x="930" y="270" width="20" height="20" as="geometry" />
        </mxCell>
        <mxCell id="1GYXw-SZhSwycH9JpS6I-73" value="" style="ellipse;whiteSpace=wrap;html=1;aspect=fixed;fillColor=#babdb6;" vertex="1" parent="1">
          <mxGeometry x="930" y="310" width="20" height="20" as="geometry" />
        </mxCell>
        <mxCell id="1GYXw-SZhSwycH9JpS6I-74" value="" style="ellipse;whiteSpace=wrap;html=1;aspect=fixed;fillColor=#babdb6;" vertex="1" parent="1">
          <mxGeometry x="1050" y="70" width="20" height="20" as="geometry" />
        </mxCell>
        <mxCell id="1GYXw-SZhSwycH9JpS6I-75" value="" style="ellipse;whiteSpace=wrap;html=1;aspect=fixed;fillColor=#babdb6;" vertex="1" parent="1">
          <mxGeometry x="1050" y="110" width="20" height="20" as="geometry" />
        </mxCell>
        <mxCell id="1GYXw-SZhSwycH9JpS6I-76" value="" style="ellipse;whiteSpace=wrap;html=1;aspect=fixed;fillColor=#babdb6;" vertex="1" parent="1">
          <mxGeometry x="1050" y="270" width="20" height="20" as="geometry" />
        </mxCell>
        <mxCell id="1GYXw-SZhSwycH9JpS6I-77" value="" style="ellipse;whiteSpace=wrap;html=1;aspect=fixed;fillColor=#babdb6;" vertex="1" parent="1">
          <mxGeometry x="1050" y="310" width="20" height="20" as="geometry" />
        </mxCell>
        <mxCell id="1GYXw-SZhSwycH9JpS6I-78" value="" style="ellipse;whiteSpace=wrap;html=1;aspect=fixed;fillColor=#babdb6;" vertex="1" parent="1">
          <mxGeometry x="930" y="150" width="20" height="20" as="geometry" />
        </mxCell>
        <mxCell id="1GYXw-SZhSwycH9JpS6I-79" value="" style="ellipse;whiteSpace=wrap;html=1;aspect=fixed;fillColor=#babdb6;" vertex="1" parent="1">
          <mxGeometry x="1050" y="150" width="20" height="20" as="geometry" />
        </mxCell>
        <mxCell id="1GYXw-SZhSwycH9JpS6I-81" value="" style="rounded=0;whiteSpace=wrap;html=1;" vertex="1" parent="1">
          <mxGeometry x="920" y="340" width="80" height="40" as="geometry" />
        </mxCell>
        <mxCell id="1GYXw-SZhSwycH9JpS6I-82" value="" style="rounded=0;whiteSpace=wrap;html=1;" vertex="1" parent="1">
          <mxGeometry x="1000" y="340" width="80" height="40" as="geometry" />
        </mxCell>
        <mxCell id="1GYXw-SZhSwycH9JpS6I-83" value="" style="ellipse;whiteSpace=wrap;html=1;aspect=fixed;fillColor=#babdb6;" vertex="1" parent="1">
          <mxGeometry x="930" y="350" width="20" height="20" as="geometry" />
        </mxCell>
        <mxCell id="1GYXw-SZhSwycH9JpS6I-84" value="" style="ellipse;whiteSpace=wrap;html=1;aspect=fixed;fillColor=#babdb6;" vertex="1" parent="1">
          <mxGeometry x="1050" y="350" width="20" height="20" as="geometry" />
        </mxCell>
      </root>
    </mxGraphModel>
  </diagram>
</mxfile>
